# xmcd
#
# Track frame offsets:
#	150
#	16660
#	34330
#	48535
#	65212
#	81262
#	97027
#	113022
#	129215
#	145477
#	164892
#	182482
#	198260
#	214550
#	231635
#	251475
#
# Disc length: 3527
#
# Revision: 1
# Processed by: cddbd v1.5.1PL0 Copyright (c) Steve Scherf et al.
# Submitted via: dBpowerAMP V4.0
# Normalized: r0:TDELIM( - )
#
DISCID=e90dc510
DTITLE=Various Artist - Motown Chartbusters Volume 11
DYEAR=1900
DGENRE=
TTITLE0=Diana Ross - Upside Down
TTITLE1=Teena Marie - Behind The Groove
TTITLE2=Billy Preston and Syreeta - It Will Come In Time
TTITLE3=Commodores - Still
TTITLE4=Rick James - Big Time
TTITLE5=High Energy - Make Me Yours
TTITLE6=Jermaine Jackson - Let's Get Serious
TTITLE7=Diana Ross - It's My House
TTITLE8=Billy Preston and Syeeta - With You I'm Born Again
TTITLE9=Jermaine Jackson - Burnin' Hot
TTITLE10=Diana Ross - My Old Piano
TTITLE11=Syreeta - He's Gone
TTITLE12=Teena Marie - I Need YourLovin'
TTITLE13=Commodores - Wonderland
TTITLE14=Smokey Robinson - Cruisin'
TTITLE15=Lynda Carter - The Last Song
EXTD=submitted by tim1701! :-D share the welth peeps!
EXTT0=
EXTT1=
EXTT2=
EXTT3=
EXTT4=
EXTT5=
EXTT6=
EXTT7=
EXTT8=
EXTT9=
EXTT10=
EXTT11=
EXTT12=
EXTT13=
EXTT14=
EXTT15=
PLAYORDER=
